<svg width="30" height="40" viewBox="0 0 30 40" fill="none" xmlns="http://www.w3.org/2000/svg">
<g clip-path="url(#clip0_83_524)">
<path d="M15.1007 0.00114648C13.9855 -0.0125773 12.8623 0.0976486 11.7513 0.33643C5.95858 1.58854 1.46585 6.15373 0.305095 11.9655C-0.764538 17.1664 1.02093 22.5423 4.99235 26.0668L5.07639 26.1459V26.3288C5.08019 28.2327 5.98315 30.0208 7.50901 31.1594L7.60799 31.2387V31.3919V33.9234C7.60799 35.8837 9.19267 37.4684 11.153 37.4684H12.2704L12.3002 37.6861C12.4922 39.0075 13.6151 39.9876 14.9503 40C16.2856 39.9876 17.4085 39.0075 17.6005 37.6861L17.6301 37.4684H18.7476C20.708 37.4684 22.2927 35.8837 22.2927 33.9234V31.3919V31.2386L22.3916 31.1595C23.9174 30.0209 24.8204 28.2327 24.8242 26.3288V26.1459L24.9082 26.0668C28.0807 23.2369 29.8929 19.1882 29.8872 14.937C29.8947 10.4373 27.8667 6.17373 24.3693 3.34249C21.7189 1.1985 18.4462 0.0423178 15.1007 0.00114648ZM14.9207 2.02739C17.8948 2.01905 20.779 3.03615 23.0887 4.90988C26.1138 7.35841 27.8676 11.0452 27.86 14.9371C27.8645 18.7921 26.1442 22.4451 23.1678 24.895C22.9342 25.0876 22.7969 25.3735 22.797 25.6762V26.3288C22.797 28.5628 20.9816 30.3783 18.7476 30.3783H11.153C8.91907 30.3783 7.10362 28.5628 7.10362 26.3288V25.6762C7.10371 25.3735 6.96646 25.0876 6.73284 24.895C3.03924 21.8633 1.33181 17.036 2.29772 12.3561C3.29658 7.34706 7.17452 3.40464 12.1666 2.32401C13.0715 2.1308 13.9954 2.03315 14.9207 2.02739ZM14.9503 7.59472C10.8928 7.59472 7.60799 10.8795 7.60799 14.9371C7.60799 15.4993 8.0593 15.9506 8.62156 15.9506C9.18382 15.9506 9.63513 15.4993 9.63513 14.9371C9.63513 12.004 12.0173 9.62185 14.9503 9.62185C15.5126 9.62185 15.9639 9.17055 15.9639 8.60829C15.9639 8.04603 15.5126 7.59472 14.9503 7.59472ZM9.63513 32.4054H20.0133H20.2655V33.9234C20.2655 34.7592 19.5835 35.4413 18.7476 35.4413H11.153C10.3172 35.4413 9.63511 34.7592 9.63511 33.9234L9.63513 32.4054Z" fill="black"/>
</g>
<defs>
<clipPath id="clip0_83_524">
<rect width="29.8872" height="40" fill="white"/>
</clipPath>
</defs>
</svg>
