<svg width="48" height="33" viewBox="0 0 48 33" fill="none" xmlns="http://www.w3.org/2000/svg">
<path d="M38.6504 0H21.2695C19.684 0 18.2056 0.661621 16.9102 1.82422H8.35156C3.66797 1.82422 0 8.16016 0 16.249C0 24.3379 3.66797 30.6738 8.35156 30.6738H16.9102C18.2056 31.8364 19.684 32.498 21.2695 32.498H38.6504C43.8936 32.498 48 25.3604 48 16.249C48 7.1377 43.8936 0 38.6504 0ZM8.35156 28.6738C4.9082 28.6738 2 22.9844 2 16.249C2 9.51367 4.9082 3.82422 8.35156 3.82422H15.189C13.1796 6.78235 11.9199 11.2103 11.9199 16.249C11.9199 21.2877 13.1796 25.7157 15.189 28.6738H8.35156ZM21.2695 30.498C17.2852 30.498 13.9199 23.9727 13.9199 16.249C13.9199 8.52539 17.2852 2 21.2695 2H34.0947C31.214 4.73865 29.2998 10.032 29.2998 16.249C29.2998 22.4661 31.214 27.7594 34.0947 30.498H21.2695ZM38.6504 30.498C34.666 30.498 31.2998 23.9727 31.2998 16.249C31.2998 8.52539 34.666 2 38.6504 2C42.6348 2 46 8.52539 46 16.249C46 23.9727 42.6348 30.498 38.6504 30.498Z" fill="black"/>
<path d="M38.6504 4.60156C35.9912 4.60156 33.0293 9.38477 33.0293 16.249C33.0293 23.1123 35.9912 27.8955 38.6504 27.8955C41.3096 27.8955 44.2715 23.1123 44.2715 16.249C44.2715 9.38477 41.3096 4.60156 38.6504 4.60156ZM38.6504 25.8955C37.5996 25.8955 35.0293 22.5156 35.0293 16.249C35.0293 9.98242 37.5996 6.60156 38.6504 6.60156C39.7012 6.60156 42.2715 9.98242 42.2715 16.249C42.2715 22.5156 39.7012 25.8955 38.6504 25.8955Z" fill="black"/>
<path d="M28.3174 26.5303H21.6455C21.0928 26.5303 20.6455 26.9775 20.6455 27.5303C20.6455 28.083 21.0928 28.5303 21.6455 28.5303H28.3174C28.8701 28.5303 29.3174 28.083 29.3174 27.5303C29.3174 26.9775 28.8701 26.5303 28.3174 26.5303Z" fill="black"/>
<path d="M21.6455 5.96777H28.3174C28.8701 5.96777 29.3174 5.52051 29.3174 4.96777C29.3174 4.41504 28.8701 3.96777 28.3174 3.96777H21.6455C21.0928 3.96777 20.6455 4.41504 20.6455 4.96777C20.6455 5.52051 21.0928 5.96777 21.6455 5.96777Z" fill="black"/>
<path d="M19.7979 10.4805H26.4697C27.0225 10.4805 27.4697 10.0332 27.4697 9.48047C27.4697 8.92773 27.0225 8.48047 26.4697 8.48047H19.7979C19.2451 8.48047 18.7979 8.92773 18.7979 9.48047C18.7979 10.0332 19.2451 10.4805 19.7979 10.4805Z" fill="black"/>
<path d="M18.8105 14.9922H25.4824C26.0352 14.9922 26.4824 14.5449 26.4824 13.9922C26.4824 13.4395 26.0352 12.9922 25.4824 12.9922H18.8105C18.2578 12.9922 17.8105 13.4395 17.8105 13.9922C17.8105 14.5449 18.2578 14.9922 18.8105 14.9922Z" fill="black"/>
<path d="M25.4824 19.5049C26.0352 19.5049 26.4824 19.0576 26.4824 18.5049C26.4824 17.9521 26.0352 17.5049 25.4824 17.5049H18.8105C18.2578 17.5049 17.8105 17.9521 17.8105 18.5049C17.8105 19.0576 18.2578 19.5049 18.8105 19.5049H25.4824Z" fill="black"/>
<path d="M27.4697 23.0176C27.4697 22.4648 27.0225 22.0176 26.4697 22.0176H19.7969C19.2441 22.0176 18.7969 22.4648 18.7969 23.0176C18.7969 23.5703 19.2441 24.0176 19.7969 24.0176H26.4697C27.0225 24.0176 27.4697 23.5703 27.4697 23.0176Z" fill="black"/>
</svg>
