<svg width="33" height="42" viewBox="0 0 33 42" fill="none" xmlns="http://www.w3.org/2000/svg">
<path d="M30.4722 36.9988L30.1408 36.029L30.1817 36.015C30.8804 35.7763 31.2545 35.0137 31.0159 34.3148L30.122 31.6989C30.0064 31.3604 29.7658 31.0871 29.4448 30.9296C29.1236 30.772 28.7603 30.749 28.422 30.8646L28.381 30.8786L22.6292 14.0453H23.0742C23.4321 14.0453 23.7222 13.7552 23.7222 13.3974V11.8906C23.7222 11.2545 23.2695 10.7023 22.6457 10.5775L20.2665 10.1017V8.29553C20.6959 7.81424 20.9576 7.1802 20.9576 6.48595C20.9576 5.95455 20.8039 5.45865 20.5396 5.0393C21.1686 4.92975 21.6488 4.38125 21.6488 3.72138V2.33909C21.6488 1.60069 21.0481 1 20.3097 1H16.1628C15.4244 1 14.8237 1.60069 14.8237 2.33909V3.72138C14.8237 3.88431 14.8544 4.03982 14.9079 4.18436L10.1405 5.94081C9.94666 5.69969 9.69958 5.50349 9.41025 5.37018C8.91781 5.14314 8.36671 5.12146 7.85846 5.30876L2.32931 7.34573C1.82037 7.5332 1.41502 7.90754 1.1878 8.3999C0.960675 8.89216 0.938818 9.44352 1.12629 9.95246C1.41908 10.7473 2.1846 11.2812 3.03117 11.2812C3.27048 11.2812 3.50659 11.2389 3.73302 11.1555L9.26217 9.11851C9.77111 8.93104 10.1765 8.5567 10.4037 8.06435C10.5372 7.77519 10.5991 7.46565 10.5901 7.15627L15.8245 5.22781C15.6273 5.6044 15.5149 6.03221 15.5149 6.48604C15.5149 7.18029 15.7766 7.81433 16.2061 8.29562V10.1017L13.8269 10.5775C13.2032 10.7022 12.7504 11.2544 12.7504 11.8906V13.3974C12.7504 13.7552 13.0405 14.0453 13.3983 14.0453H13.8432L8.09146 30.8786L8.05059 30.8646C7.71202 30.749 7.34874 30.772 7.0277 30.9296C6.70658 31.0872 6.46606 31.3604 6.35038 31.6989L5.45648 34.3148C5.21769 35.0135 5.59194 35.7763 6.2906 36.015L6.33146 36.029L6.00006 36.9989C5.11488 37.2175 4.45639 38.018 4.45639 38.9698V40.3521C4.45639 40.7099 4.7465 41 5.10434 41H7.86891C8.22675 41 8.51686 40.7099 8.51686 40.3521V38.9698C8.51686 38.1501 8.02831 37.4428 7.32723 37.1225L7.55764 36.4481L7.5985 36.4621C7.74148 36.5109 7.88705 36.5342 8.03038 36.5342C8.58735 36.5342 9.10874 36.1837 9.29871 35.6279L10.061 33.3973H16.2059V34.8228C16.2059 35.5612 16.8066 36.1619 17.545 36.1619H17.5882V37.0461C16.7856 37.3172 16.2059 38.0767 16.2059 38.9697V40.352C16.2059 40.7098 16.496 40.9999 16.8539 40.9999H19.6184C19.9763 40.9999 20.2664 40.7098 20.2664 40.352V38.9697C20.2664 38.0767 19.6867 37.3172 18.8841 37.0461V36.1619H18.9273C19.6657 36.1619 20.2664 35.5612 20.2664 34.8228V33.3973H26.4113L27.1734 35.6277C27.2891 35.9661 27.5296 36.2394 27.8507 36.3969C28.0372 36.4884 28.2377 36.5345 28.4394 36.5345C28.5852 36.5345 28.7315 36.5104 28.8734 36.4619L28.9143 36.4479L29.1447 37.1223C28.4437 37.4425 27.9552 38.1498 27.9552 38.9695V40.3518C27.9552 40.7096 28.2453 40.9997 28.6031 40.9997H31.3677C31.7255 40.9997 32.0156 40.7096 32.0156 40.3518V38.9695C32.0159 38.0179 31.3574 37.2174 30.4722 36.9988ZM7.22114 39.704H5.75246V38.9697C5.75246 38.5658 6.08023 38.2372 6.48369 38.2355C6.48369 38.2355 6.48377 38.2355 6.48386 38.2355C6.48412 38.2355 6.48438 38.2354 6.48464 38.2354C6.48533 38.2354 6.48602 38.2353 6.4868 38.2353C6.89172 38.2353 7.22114 38.5648 7.22114 38.9697V39.704ZM18.9706 39.704H17.5019V38.9697C17.5019 38.5648 17.8313 38.2353 18.2362 38.2353C18.6412 38.2353 18.9706 38.5648 18.9706 38.9697V39.704ZM19.6617 6.48595C19.6617 7.27195 19.0222 7.91143 18.2362 7.91143C17.4502 7.91143 16.8107 7.27195 16.8107 6.48595C16.8107 5.69995 17.4502 5.06047 18.2362 5.06047C19.0222 5.06047 19.6617 5.69995 19.6617 6.48595ZM17.5019 9.10581C17.7357 9.17147 17.9818 9.20733 18.2362 9.20733C18.4907 9.20733 18.7368 9.17147 18.9706 9.10581V9.98486H17.5019V9.10581ZM16.1196 2.33909C16.1196 2.31525 16.139 2.29589 16.1628 2.29589H20.3097C20.3335 2.29589 20.3529 2.31525 20.3529 2.33909V3.72138C20.3529 3.74522 20.3335 3.76457 20.3097 3.76457H16.1628C16.139 3.76457 16.1196 3.74522 16.1196 3.72138V2.33909ZM3.2849 9.93942C3.2024 9.96983 3.11704 9.98521 3.03099 9.98521C2.7249 9.98521 2.44802 9.79203 2.3421 9.50443C2.27428 9.32024 2.28214 9.12085 2.3643 8.94279C2.44646 8.76474 2.59298 8.62944 2.77709 8.56163L6.80645 7.07714L7.3141 8.45502L3.2849 9.93942ZM9.22683 7.52128C9.14467 7.69934 8.99815 7.83463 8.81405 7.90245L8.53025 8.00698L8.0226 6.6291L8.30649 6.52448C8.38908 6.49407 8.47478 6.47895 8.56031 6.47895C8.66511 6.47895 8.76964 6.50167 8.8677 6.54686C9.04593 6.62902 9.18139 6.77554 9.24912 6.95956C9.31694 7.14383 9.30899 7.34323 9.22683 7.52128ZM14.0462 11.8906C14.0462 11.87 14.0608 11.8522 14.0809 11.8483L16.918 11.2808H19.5542L22.3915 11.8483C22.4116 11.8522 22.4262 11.8701 22.4262 11.8906V12.7494H14.0461L14.0462 11.8906ZM8.96645 32.5928L8.07254 35.2087C8.06485 35.2314 8.04031 35.2434 8.01768 35.2357L7.36403 35.0124C7.36394 35.0124 7.36377 35.0123 7.36368 35.0122C7.3636 35.0121 7.36343 35.0121 7.36334 35.0121L6.70969 34.7888C6.68714 34.7811 6.67513 34.7565 6.68282 34.7339L7.57673 32.1179C7.5782 32.1137 7.58252 32.101 7.59859 32.0931C7.61466 32.0851 7.62736 32.0894 7.63159 32.091L8.28541 32.3144C8.2855 32.3144 8.28558 32.3145 8.28567 32.3145C8.28576 32.3145 8.28576 32.3145 8.28584 32.3145L8.93966 32.5379C8.96204 32.5456 8.97422 32.5701 8.96645 32.5928ZM10.1759 32.1014C10.0386 31.7428 9.74951 31.4451 9.35858 31.3116L9.31772 31.2976L15.2126 14.0453H17.5882V30.7192H17.545C16.8066 30.7192 16.2059 31.3198 16.2059 32.0582V32.1014H10.1759ZM18.9706 34.8228C18.9706 34.8467 18.9512 34.866 18.9274 34.866H17.5451C17.5212 34.866 17.5019 34.8467 17.5019 34.8228V32.0582C17.5019 32.0344 17.5212 32.0151 17.5451 32.0151H18.9274C18.9512 32.0151 18.9706 32.0344 18.9706 32.0582V34.8228ZM18.9274 30.7192H18.8842V14.0453H21.2598L27.1547 31.2976L27.1139 31.3116C26.7754 31.4272 26.5022 31.6678 26.3447 31.9889C26.3266 32.0259 26.3107 32.0634 26.2962 32.1014H20.2666V32.0582C20.2665 31.3198 19.6657 30.7192 18.9274 30.7192ZM28.4216 35.2336C28.4055 35.2258 28.4012 35.213 28.3998 35.2087L27.5058 32.5927C27.4982 32.5701 27.5102 32.5455 27.5327 32.5378L28.1866 32.3144C28.1867 32.3144 28.1867 32.3144 28.1868 32.3144C28.1869 32.3144 28.187 32.3143 28.1871 32.3143L28.8409 32.0909C28.8432 32.0901 28.8481 32.0884 28.8549 32.0884C28.8602 32.0884 28.8667 32.0894 28.8739 32.093C28.8899 32.1008 28.8943 32.1135 28.8957 32.1179L29.7896 34.7338C29.7973 34.7564 29.7852 34.781 29.7627 34.7888L29.1091 35.0121C29.109 35.0122 29.1088 35.0122 29.1086 35.0123C29.1084 35.0124 29.1083 35.0125 29.1081 35.0125L28.4545 35.2358C28.4504 35.2372 28.4377 35.2414 28.4216 35.2336ZM30.72 39.704H29.2513V38.9697C29.2513 38.5648 29.5807 38.2353 29.9857 38.2353C29.9864 38.2353 29.987 38.2354 29.9878 38.2354C29.9881 38.2354 29.9883 38.2355 29.9886 38.2355C29.9887 38.2355 29.9887 38.2355 29.9888 38.2355C30.3923 38.2372 30.72 38.5658 30.72 38.9697V39.704Z" fill="black" stroke="black" stroke-width="0.2"/>
</svg>
